<?xml version="1.0" ?><!DOCTYPE svg  PUBLIC '-//W3C//DTD SVG 1.1//EN'  'http://www.w3.org/Graphics/SVG/1.1/DTD/svg11.dtd'><svg height="45px" id="Layer_1" style="enable-background:new 0 0 46 45;" version="1.1" viewBox="0 0 46 45" width="46px" xml:space="preserve" xmlns="http://www.w3.org/2000/svg" xmlns:xlink="http://www.w3.org/1999/xlink"><g><g><path d="M38.6,5h-4.2C33.1,5,32,6.1,32,7.4v4.2c0,1.3,1.1,2.4,2.4,2.4h4.2c1.3,0,2.4-1.1,2.4-2.4V7.4C41,6.1,39.9,5,38.6,5z     M39,11.6c0,0.2-0.2,0.4-0.4,0.4h-4.2c-0.2,0-0.4-0.2-0.4-0.4V7.4C34,7.2,34.2,7,34.4,7h4.2C38.8,7,39,7.2,39,7.4V11.6z M36.2,0    H9.8C4.4,0,0,4.4,0,9.8v25.3C0,40.6,4.4,45,9.8,45h26.3c5.4,0,9.8-4.4,9.8-9.8V9.8C46,4.4,41.6,0,36.2,0z M44,35.1    c0,4.3-3.5,7.9-7.8,7.9H9.8C5.5,43,2,39.5,2,35.1V18h12.5c-2.5,2.4-4.1,5.8-4.1,9.5c0,7.3,5.9,13.2,13.2,13.2    c7.3,0,13.2-5.9,13.2-13.2c0-3.7-1.6-7.1-4.1-9.5H44V35.1z M23.5,16.3c6.2,0,11.2,5,11.2,11.2c0,6.2-5,11.2-11.2,11.2    c-6.2,0-11.2-5-11.2-11.2C12.4,21.4,17.4,16.3,23.5,16.3z M44,16H31v0.7c-2.1-1.5-4.7-2.3-7.5-2.3c-2.4,0-4.6,0.6-6.5,1.8V16H2    V9.8C2,5.5,5.5,2,9.8,2h26.3C40.5,2,44,5.5,44,9.8V16z M23.5,35.2c4.2,0,7.6-3.4,7.6-7.6s-3.4-7.6-7.6-7.6c-4.2,0-7.6,3.4-7.6,7.6    S19.3,35.2,23.5,35.2z M23.5,21.9c3.1,0,5.6,2.5,5.6,5.6c0,3.1-2.5,5.6-5.6,5.6c-3.1,0-5.6-2.5-5.6-5.6    C17.9,24.4,20.4,21.9,23.5,21.9z"/></g></g></svg>